<svg width="18" height="18" viewBox="0 0 18 18" fill="none" xmlns="http://www.w3.org/2000/svg">
<path d="M2.49688 6.68245C2.49688 6.53995 2.54937 6.39745 2.66187 6.28495C2.87937 6.06745 3.23938 6.06745 3.45688 6.28495L8.34687 11.175C8.70687 11.535 9.29187 11.535 9.65187 11.175L14.5419 6.28495C14.7594 6.06745 15.1194 6.06745 15.3369 6.28495C15.5544 6.50245 15.5544 6.86245 15.3369 7.07995L10.4469 11.97C10.0644 12.3525 9.54687 12.57 8.99937 12.57C8.45187 12.57 7.93437 12.36 7.55187 11.97L2.66187 7.07995C2.55688 6.96745 2.49688 6.82495 2.49688 6.68245Z" fill="#1B1B1B"/>
</svg>
