<svg width="24" height="16" viewBox="0 0 24 16" fill="none" xmlns="http://www.w3.org/2000/svg">
<path d="M12.0001 2.08209C12.6495 2.08209 13.2707 2.13856 13.8918 2.2515C13.8918 2.1668 13.9201 2.08209 13.9201 1.99739C13.9201 0.952684 13.073 0.0773926 12.0001 0.0773926C10.9271 0.0773926 10.0801 0.924449 10.0801 1.99739C10.0801 2.08209 10.0801 2.1668 10.1083 2.2515C10.7295 2.13856 11.3507 2.08209 12.0001 2.08209Z" fill="#FF1D23"/>
<path d="M13.9062 3.18601C13.2851 3.07307 12.6639 3.0166 12.0145 3.0166C11.3651 3.0166 10.7439 3.07307 10.1227 3.18601C5.26628 4.08954 1.5957 8.32482 1.5957 13.4354H22.405C22.4333 8.32482 18.7627 4.0613 13.9062 3.18601ZM12.438 4.82365C16.1086 4.82365 20.1462 8.18364 20.1462 11.8542H16.4192C16.4192 8.18364 8.76744 4.82365 12.438 4.82365Z" fill="#FF1D23"/>
<path d="M0 14.2007L0.847056 15.923H23.1529L23.9999 14.2007H0Z" fill="#FF1D23"/>
</svg>
