<svg width="24" height="24" viewBox="0 0 24 24" fill="none" xmlns="http://www.w3.org/2000/svg">
<circle cx="12" cy="12" r="12" fill="#7BA700"/>
<path d="M4.02194 19.0021C4.02194 19.0021 4.84957 17.2541 10.8593 16.8175C15.2578 16.4979 19.0751 13.4274 16.4645 9.41913C16.4645 9.41913 18.5088 9.55245 19.6642 11.3301C19.6642 11.3301 20.4197 10.619 19.6642 9.7747C18.9087 8.93043 13.5263 5.91392 8.37124 12.7134L6.93663 14.5579C6.93663 14.5579 9.53171 7.10803 15.7979 7.77461C15.7979 7.77461 15.7535 5.81926 12.8648 5.10813C9.97604 4.39699 6.42072 7.28591 5.08757 11.0633C3.75442 14.8407 4.02194 19.0021 4.02194 19.0021Z" fill="white"/>
</svg>
