<svg width="18" height="18" viewBox="0 0 18 18" fill="none" xmlns="http://www.w3.org/2000/svg">
<path d="M11.3183 15.5024C11.4608 15.5024 11.6033 15.4499 11.7158 15.3374C11.9333 15.1199 11.9333 14.7599 11.7158 14.5424L6.82578 9.65239C6.46578 9.29239 6.46578 8.70739 6.82578 8.34739L11.7158 3.45739C11.9333 3.23989 11.9333 2.87989 11.7158 2.66239C11.4983 2.44489 11.1383 2.44489 10.9208 2.66239L6.03078 7.55239C5.64828 7.93489 5.43078 8.45239 5.43078 8.99989C5.43078 9.54739 5.64078 10.0649 6.03078 10.4474L10.9208 15.3374C11.0333 15.4424 11.1758 15.5024 11.3183 15.5024Z" fill="#1B1B1B"/>
</svg>
