<svg width="16" height="19" viewBox="0 0 16 19" fill="none" xmlns="http://www.w3.org/2000/svg">
<path d="M15.1829 6.54158C14.3079 2.69159 10.9496 0.958252 7.99959 0.958252C7.99959 0.958252 7.99959 0.958252 7.99126 0.958252C5.04959 0.958252 1.68292 2.68325 0.807924 6.53325C-0.167075 10.8333 2.46626 14.4749 4.84959 16.7666C5.73292 17.6166 6.86626 18.0416 7.99959 18.0416C9.13292 18.0416 10.2663 17.6166 11.1413 16.7666C13.5246 14.4749 16.1579 10.8416 15.1829 6.54158ZM7.99959 10.7166C6.54959 10.7166 5.37459 9.54158 5.37459 8.09159C5.37459 6.64158 6.54959 5.46658 7.99959 5.46658C9.44959 5.46658 10.6246 6.64158 10.6246 8.09159C10.6246 9.54158 9.44959 10.7166 7.99959 10.7166Z" fill="#1B1B1B"/>
</svg>
