<svg width="18" height="18" viewBox="0 0 18 18" fill="none" xmlns="http://www.w3.org/2000/svg">
<path d="M6.68172 15.5024C6.53922 15.5024 6.39672 15.4499 6.28422 15.3374C6.06672 15.1199 6.06672 14.7599 6.28422 14.5424L11.1742 9.65239C11.5342 9.29239 11.5342 8.70739 11.1742 8.34739L6.28422 3.45739C6.06672 3.23989 6.06672 2.87989 6.28422 2.66239C6.50172 2.44489 6.86172 2.44489 7.07922 2.66239L11.9692 7.55239C12.3517 7.93489 12.5692 8.45239 12.5692 8.99989C12.5692 9.54739 12.3592 10.0649 11.9692 10.4474L7.07922 15.3374C6.96672 15.4424 6.82422 15.5024 6.68172 15.5024Z" fill="#1B1B1B"/>
</svg>
