<svg width="20" height="20" viewBox="0 0 20 20" fill="none" xmlns="http://www.w3.org/2000/svg">
<path id="Vector" d="M19.6561 18.1081L16.0689 14.5455C18.8699 10.9584 18.5751 5.84774 15.3563 2.62907C13.6609 0.933702 11.4005 0 8.99269 0C6.58488 0 4.3244 0.933702 2.62907 2.62907C0.933702 4.32444 0 6.58484 0 8.99269C0 11.4005 0.933702 13.661 2.62907 15.3563C4.32444 17.0517 6.58484 17.9854 8.99269 17.9854C10.9828 17.9854 12.9485 17.322 14.5209 16.0689L18.0835 19.6805C18.3046 19.9016 18.5749 20 18.8699 20C19.1646 20 19.4349 19.8771 19.6562 19.6805C20.0984 19.2629 20.0984 18.5504 19.656 18.1081L19.6561 18.1081ZM15.7741 8.99265C15.7741 10.8109 15.0617 12.5061 13.784 13.7838C12.5063 15.0615 10.7865 15.7739 8.99287 15.7739C7.19926 15.7739 5.47945 15.0615 4.20173 13.7838C2.924 12.5061 2.2116 10.7863 2.2116 8.99265C2.2116 7.17443 2.92404 5.47923 4.20173 4.20151C5.47941 2.92378 7.19926 2.21138 8.99287 2.21138C10.8111 2.21138 12.5063 2.92383 13.784 4.20151C15.0615 5.47901 15.7741 7.17439 15.7741 8.99265Z" fill="#8F949B"/>
</svg>
