<svg xmlns="http://www.w3.org/2000/svg" width="15" height="14" viewBox="0 0 15 14" fill="none">
  <path d="M6.80068 0.385489C6.96769 -0.128497 7.69484 -0.128496 7.86185 0.385491L9.21006 4.53488C9.28475 4.76474 9.49896 4.92037 9.74065 4.92037H14.1036C14.644 4.92037 14.8687 5.61194 14.4315 5.9296L10.9018 8.49406C10.7063 8.63612 10.6245 8.88794 10.6991 9.1178L12.0474 13.2672C12.2144 13.7812 11.6261 14.2086 11.1889 13.8909L7.65918 11.3265C7.46365 11.1844 7.19888 11.1844 7.00335 11.3265L3.47366 13.8909C3.03644 14.2086 2.44816 13.7812 2.61517 13.2672L3.96339 9.1178C4.03807 8.88794 3.95625 8.63612 3.76072 8.49406L0.231038 5.9296C-0.206185 5.61193 0.0185193 4.92037 0.558957 4.92037H4.92188C5.16357 4.92037 5.37778 4.76474 5.45247 4.53488L6.80068 0.385489Z" fill="#5C5F64"/>
</svg>