<svg width="50" height="64" viewBox="0 0 50 64" fill="none" xmlns="http://www.w3.org/2000/svg">
<path d="M14.8918 58.546H10.9931L15.1481 53.1597L15.1305 53.1421C15.2783 52.9943 15.3529 52.8004 15.3529 52.5603C15.3529 52.2633 15.2674 52.045 15.0966 51.9013C14.9257 51.7589 14.7318 51.687 14.5148 51.687H9.09456C8.87759 51.687 8.68096 51.7589 8.50467 51.9013C8.32838 52.0437 8.24023 52.2633 8.24023 52.5603C8.24023 52.8343 8.32838 53.039 8.50467 53.176C8.68096 53.3129 8.87759 53.3808 9.09456 53.3808H12.6339L8.4789 58.7671C8.31889 58.9271 8.24023 59.1427 8.24023 59.4166C8.24023 59.6906 8.32838 59.8953 8.50467 60.0323C8.68096 60.1693 8.87759 60.2371 9.09456 60.2371H14.8918C15.1088 60.2371 15.3027 60.1693 15.4735 60.0323C15.6444 59.8953 15.7298 59.6906 15.7298 59.4166C15.7298 59.121 15.6444 58.9013 15.4735 58.7589C15.3027 58.6166 15.1088 58.5447 14.8918 58.5447V58.546Z" fill="url(#paint0_linear_507_2482)"/>
<path d="M23.3732 52.6728C23.0532 52.3135 22.6491 52.0314 22.1595 51.8266C21.6686 51.6219 21.0936 51.5188 20.4319 51.5188C19.7701 51.5188 19.1775 51.6219 18.688 51.8266C18.1971 52.0314 17.7957 52.3135 17.4824 52.6728C17.1692 53.0322 16.9359 53.4485 16.7813 53.9204C16.6281 54.3937 16.5508 54.8981 16.5508 55.4338V56.6136C16.5508 57.1262 16.6281 57.6116 16.7813 58.0673C16.9359 58.5229 17.1692 58.9216 17.4824 59.2647C17.7957 59.6064 18.1971 59.8776 18.688 60.077C19.1775 60.2763 19.7593 60.3767 20.4319 60.3767C21.1045 60.3767 21.6686 60.2763 22.1595 60.077C22.6491 59.8776 23.0545 59.6064 23.3732 59.2647C23.6919 58.923 23.9292 58.5243 24.0824 58.0673C24.2357 57.6116 24.313 57.1262 24.313 56.6136V55.4338C24.313 54.8981 24.2357 54.3937 24.0824 53.9204C23.9292 53.4471 23.6919 53.0308 23.3732 52.6728ZM22.2965 56.6312C22.2965 57.2577 22.131 57.7432 21.8001 58.0849C21.4693 58.4266 21.0136 58.5975 20.4319 58.5975C19.8501 58.5975 19.3945 58.4266 19.0636 58.0849C18.7327 57.7432 18.5673 57.2591 18.5673 56.6312V55.3999C18.5673 54.7164 18.7327 54.197 19.0636 53.8431C19.3945 53.4905 19.8501 53.3129 20.4319 53.3129C21.0136 53.3129 21.4693 53.4892 21.8001 53.8431C22.131 54.197 22.2965 54.7151 22.2965 55.3999V56.6312Z" fill="url(#paint1_linear_507_2482)"/>
<path d="M31.9904 52.6728C31.6704 52.3135 31.2662 52.0314 30.7767 51.8266C30.2858 51.6219 29.7108 51.5188 29.0491 51.5188C28.3873 51.5188 27.7947 51.6219 27.3051 51.8266C26.8142 52.0314 26.4128 52.3135 26.0996 52.6728C25.7863 53.0322 25.5531 53.4485 25.3985 53.9204C25.2453 54.3937 25.168 54.8981 25.168 55.4338V56.6136C25.168 57.1262 25.2453 57.6116 25.3985 58.0673C25.5531 58.5229 25.7863 58.9216 26.0996 59.2647C26.4128 59.6064 26.8142 59.8776 27.3051 60.077C27.7947 60.2763 28.3764 60.3767 29.0491 60.3767C29.7217 60.3767 30.2858 60.2763 30.7767 60.077C31.2662 59.8776 31.6717 59.6064 31.9904 59.2647C32.3091 58.923 32.5464 58.5243 32.6996 58.0673C32.8528 57.6116 32.9301 57.1262 32.9301 56.6136V55.4338C32.9301 54.8981 32.8528 54.3937 32.6996 53.9204C32.5464 53.4471 32.3091 53.0308 31.9904 52.6728ZM30.9137 56.6312C30.9137 57.2577 30.7482 57.7432 30.4173 58.0849C30.0865 58.4266 29.6308 58.5975 29.0491 58.5975C28.4673 58.5975 28.0117 58.4266 27.6808 58.0849C27.3499 57.7432 27.1845 57.2591 27.1845 56.6312V55.3999C27.1845 54.7164 27.3499 54.197 27.6808 53.8431C28.0117 53.4905 28.4673 53.3129 29.0491 53.3129C29.6308 53.3129 30.0865 53.4892 30.4173 53.8431C30.7482 54.197 30.9137 54.7151 30.9137 55.3999V56.6312Z" fill="url(#paint2_linear_507_2482)"/>
<path d="M40.8741 52.6891C40.5487 52.3297 40.1364 52.045 39.6347 51.8348C39.1329 51.6246 38.5512 51.5188 37.8908 51.5188C37.2304 51.5188 36.7137 51.6042 36.2404 51.7751C35.7671 51.946 35.3712 52.186 35.0525 52.4925C34.7325 52.8003 34.4938 53.1624 34.3338 53.5787C34.1738 53.995 34.0938 54.4479 34.0938 54.9375V63.196C34.0938 63.4007 34.1873 63.5865 34.3758 63.752C34.5643 63.9174 34.8125 64.0001 35.1203 64.0001C35.4281 64.0001 35.6532 63.9174 35.8295 63.752C36.0058 63.5865 36.0953 63.4007 36.0953 63.196V59.5196L36.2323 59.4857C36.4832 59.7597 36.7761 59.9794 37.1124 60.1448C37.4487 60.3102 37.8501 60.393 38.3179 60.393C38.9444 60.393 39.4801 60.2872 39.9249 60.077C40.3697 59.8668 40.7345 59.5807 41.0192 59.2227C41.304 58.8633 41.5156 58.447 41.6525 57.9751C41.7895 57.5018 41.8573 56.9973 41.8573 56.4617V55.4528C41.8573 54.9171 41.7746 54.4127 41.6091 53.9394C41.4437 53.4661 41.1982 53.0498 40.8741 52.6918V52.6891ZM39.8394 56.5281C39.8394 57.133 39.6604 57.6171 39.3011 57.9819C38.9417 58.3466 38.4712 58.5297 37.8908 58.5297C37.3782 58.5297 36.951 58.3819 36.6079 58.0849C36.2662 57.7893 36.0953 57.3269 36.0953 56.7004V54.871C36.0953 54.3584 36.2662 53.9814 36.6079 53.7428C36.9496 53.5027 37.3768 53.3834 37.8908 53.3834C38.4725 53.3834 38.9431 53.5665 39.3011 53.9299C39.6604 54.2947 39.8394 54.7788 39.8394 55.3836V56.5295V56.5281Z" fill="url(#paint3_linear_507_2482)"/>
<path d="M48.5475 16.7639C48.3739 16.6215 48.1773 16.551 47.9576 16.551C47.2335 16.551 46.2286 17.3579 44.939 18.9703C43.2263 21.1834 42.2594 22.4649 42.0384 22.812C41.3468 23.8711 41.001 24.7254 41.001 25.3736C41.001 25.5798 41.0633 26.0937 41.1908 26.9155C41.2383 27.2166 41.2613 27.5244 41.2613 27.8403C41.2613 30.3382 39.8239 33.1996 36.949 36.4243C33.9005 39.8389 31.4989 41.7211 29.7455 42.0683C29.0499 42.1971 28.6322 42.0385 28.4898 41.5964C28.4573 41.5015 28.4423 41.4065 28.4423 41.3116C28.4423 40.9319 28.6322 40.4505 29.0105 39.8647C30.2418 37.9838 35.7882 28.9401 45.6455 12.735H45.6225C45.6387 12.7187 45.6536 12.6957 45.6699 12.6645C45.7011 12.6333 45.7242 12.6089 45.7404 12.594C46.6205 11.124 47.4071 9.81132 48.0973 8.6573C48.6004 7.50328 48.8513 6.42791 48.8513 5.43255C48.8513 4.70569 48.7075 4.0263 48.4187 3.39301C47.1684 1.13243 45.2387 0.00146484 42.6269 0.00146484H6.60816C4.78152 0.00146484 3.22746 0.633396 1.94597 1.89861C0.648204 3.17739 0 4.71112 0 6.49842V25.2326C0.153237 26.4504 0.568196 27.3752 1.24623 28.0071C1.67069 28.3868 2.15345 28.5767 2.69588 28.5767C3.94211 28.5767 5.52601 27.5651 7.44757 25.5404C9.55355 22.9639 10.7076 21.4939 10.911 21.1291C11.1293 20.7182 11.2392 20.3073 11.2392 19.8965C11.2392 19.5168 11.1524 19.1303 10.9788 18.7343C10.6316 17.8962 10.4567 17.1694 10.4567 16.5524C10.4567 16.0303 10.5828 15.5963 10.8364 15.2478L18.6325 4.64738C18.8372 4.36261 19.0976 4.33142 19.4149 4.55246C19.7458 4.7735 19.8096 5.02708 19.6048 5.31186L13.2773 14.4423C13.0875 14.7108 13.1431 14.9481 13.4428 15.1543C13.7425 15.3753 13.9879 15.3441 14.1778 15.0593L20.4808 6.00074C20.7019 5.68478 20.9866 5.64545 21.3338 5.88277C21.6972 6.13635 21.7677 6.41977 21.5467 6.73574L15.2436 15.8187C15.0538 16.0872 15.1094 16.3246 15.4091 16.5307C15.7088 16.7368 15.9542 16.7043 16.1441 16.4357L22.4471 7.37716C22.6682 7.04492 22.9529 7.0056 23.3001 7.25918C23.6635 7.51277 23.734 7.79754 23.513 8.11215L17.21 17.1707C17.0201 17.4392 17.0757 17.6847 17.3754 17.9057C17.6751 18.1119 17.9205 18.0793 18.1104 17.8108L24.4378 8.68035C24.6426 8.39557 24.903 8.36438 25.2203 8.58543C25.5363 8.80647 25.5986 9.06819 25.4102 9.36788L18.2067 20.3711C17.732 21.0979 16.753 21.4614 15.2681 21.4614H14.7948C13.916 21.4614 13.1689 21.7624 12.5559 22.3632C11.9091 23.0276 8.5921 28.1102 2.60502 37.6109C1.39405 39.8091 0.789236 41.7089 0.789236 43.3132C0.789236 44.672 1.20555 45.8233 2.03818 46.7657C3.31832 48.012 4.85475 48.6358 6.64748 48.6358H42.631C44.4549 48.6358 46.0076 47.9971 47.2877 46.7183C48.5679 45.4232 49.2079 43.8732 49.2079 42.0669V19.0164C49.1917 17.8786 48.972 17.1273 48.5475 16.7639Z" fill="url(#paint4_linear_507_2482)"/>
<defs>
<linearGradient id="paint0_linear_507_2482" x1="0.00071712" y1="32.0008" x2="49.2086" y2="32.0008" gradientUnits="userSpaceOnUse">
<stop stop-color="#FF6315"/>
<stop offset="0.26" stop-color="#FF411C"/>
<stop offset="0.57" stop-color="#FF1D23"/>
<stop offset="0.83" stop-color="#FF0728"/>
<stop offset="1" stop-color="#FF002A"/>
</linearGradient>
<linearGradient id="paint1_linear_507_2482" x1="-0.000122551" y1="32.0008" x2="49.2078" y2="32.0008" gradientUnits="userSpaceOnUse">
<stop stop-color="#FF6315"/>
<stop offset="0.26" stop-color="#FF411C"/>
<stop offset="0.57" stop-color="#FF1D23"/>
<stop offset="0.83" stop-color="#FF0728"/>
<stop offset="1" stop-color="#FF002A"/>
</linearGradient>
<linearGradient id="paint2_linear_507_2482" x1="-0.000795823" y1="32.0008" x2="49.2071" y2="32.0008" gradientUnits="userSpaceOnUse">
<stop stop-color="#FF6315"/>
<stop offset="0.26" stop-color="#FF411C"/>
<stop offset="0.57" stop-color="#FF1D23"/>
<stop offset="0.83" stop-color="#FF0728"/>
<stop offset="1" stop-color="#FF002A"/>
</linearGradient>
<linearGradient id="paint3_linear_507_2482" x1="0.000646219" y1="32.0008" x2="49.2086" y2="32.0008" gradientUnits="userSpaceOnUse">
<stop stop-color="#FF6315"/>
<stop offset="0.26" stop-color="#FF411C"/>
<stop offset="0.57" stop-color="#FF1D23"/>
<stop offset="0.83" stop-color="#FF0728"/>
<stop offset="1" stop-color="#FF002A"/>
</linearGradient>
<linearGradient id="paint4_linear_507_2482" x1="0" y1="32.0008" x2="49.2079" y2="32.0008" gradientUnits="userSpaceOnUse">
<stop stop-color="#FF6315"/>
<stop offset="0.25" stop-color="#FF411C"/>
<stop offset="0.5" stop-color="#FF1D23"/>
<stop offset="0.75" stop-color="#FF0728"/>
<stop offset="1" stop-color="#FF002A"/>
</linearGradient>
</defs>
</svg>
